<svg id="Layer_1" data-name="Layer 1" xmlns="http://www.w3.org/2000/svg" viewBox="0 0 288 290"><defs><style>.cls-1{fill:#eb0006;}</style></defs><title>Artboard 1</title><path class="cls-1" d="M71.83,21.33h5.58l12.83,4.92,18.08,4.58,20.17,2.75h56.75l23.25-2.5,8.75-2.42,2.67-.17L223,39.42s2.08,5.92,2.17,6.17,7.83,8,7.83,8l5,7.58s3.83,13.17,4,13.67S249,96.5,249,97s11.67,48,11.67,48l9.17,41s1.17,14.33,1.33,16,4.17,22.5,4.67,24.33S280,241.5,280,241.5l4,12.83-2,2-19.17,3.33h-8L214.5,272l-22.67,3-22.33,1.33-16.33,1-2.5-3.83s-2.83-21.17-2.83-22S144,226.83,144,226.83l-3.5-6.67-.67-4.17-3.5,20.83-4.33,23,.17,12.67-2,3.33-12.17-1L74.5,267l-19.67-4.5-11.17-4.67L29,254.67l-18.33-2.83-9.33-2.5-2.83-.83s5.33-13.5,5.33-14S9,213.5,9,213.5l5.67-24.33s9.5-36.33,9.5-37S35,116.33,35,116.33l9.83-35L49.17,70.5l4-12S59.67,48,60,47.5s7.17-12.67,7.17-12.67l1.17-7.67Z"/></svg>