<svg id="Layer_1" data-name="Layer 1" xmlns="http://www.w3.org/2000/svg" viewBox="0 0 759 1125"><defs><style>.cls-1{fill:#ff1d24;}</style></defs><title>Artboard 1</title><path class="cls-1" d="M69.17,1041.5v-19.33l6.33-18.67,2-27.33,5.67-53,6.33-65,2.33-43,15.33-140s8.33-74.67,8.33-75.67,4.33-40,4.33-40l6.67-64,2.67-37.33,3.67-42.33,8.67-64.33,4.67-37.33,3.33-32s5-53.33,5.33-54.33,5.67-30.67,5.67-30.67,6-25.33,6.33-26.33,5.67-21.33,5.67-21.33l12-39s7-20.67,7.67-22,4-15,4-15l4-11.67,15,5.67,13.67,7,16.33,2.67,15.67,1,18.67,1.67,36,6.67s25.33,1.67,27.33,1.67,42.33,5.33,42.33,5.33,17.67-4,22.33-5.67,22-5.33,22-5.33h40.67c1,0,16.67,2.67,16.67,2.67l11.67-.33,9.33-4.67,16.33-6.33s4.67-3.33,6.67-1,4,7.67,4,7.67l2,11v8.33l5.67,25.33,15.67,27,4,15,5,28.33s11.67,54,11.67,55.33,7.67,35.67,7.67,35.67l7,34.67,8.33,28,11.33,59L634.5,512.5l19.33,98.33L665.5,672.5l7.33,34s13.33,83.67,13.67,85.33,9.67,53.67,10.33,55,10.33,48.67,10.33,48.67l5,35s9.67,43,9.67,46.33,3.67,18.33,4.33,22.67,3.33,13.67,4,17.33,0,18.67,0,18.67-11.33,2.67-12.33,3.33-26,6.33-26,6.33l-28,5-31.33,5.67s-26,1.33-27,1.33-13.67,3-13.67,3l-12.33-2.33s-3-11.67-4.33-14.33-11-37.33-11-38.33-8.67-35.67-8.67-35.67-14.33-58.67-14.33-60-9-41-9-41L521.5,823.83s-12.67-56-12.67-57-9-38.33-9-38.33L486.5,686.83l-12.67-27.67s-22.33-64-22.67-65-25.67-67.33-25.67-67.33l-16-43s-9-36.33-9.69-37.33-2.31-16-2.31-17-4-19.33-4-19.33l-5.33-20.33-4-17.67s-4.67,16-4.67,18.67.67,15,0,16.67-2,20.33-3,22.33-4.67,14-4.67,14-5.67,10.33-8.67,17.33-6,11-8.33,17.33-9.33,17-9.33,19.33-1.67,7.33-2.33,10-16,50.33-16.67,51.67-13.67,46.67-13.67,46.67l-6.67,35.33L294.5,693.17s-9.67,56-9.67,57-11.67,62.33-11.67,62.33l-10,52.67-7,31s-6.67,36.67-7.33,37.67-5,29.33-5,29.33l-3.67,27.67-2.67,22.33-1.33,21.67-2.33,13-4.33,8-9,1h-17l-28.67-1.67-16.33-2.33-21.33-.67-36.67-3.67-20.67-2.67Z"/></svg>