<svg id="Layer_1" data-name="Layer 1" xmlns="http://www.w3.org/2000/svg" viewBox="0 0 759 1173"><defs><style>.cls-1{fill:#eb000d;}</style></defs><title>Artboard 1</title><path class="cls-1" d="M86.83,1101.5l-5.67-14v-101l-3-49.67L74.5,903.17s-5-29-5-30-4.33-24.67-4.33-24.67-2.33-47.67-2.33-49-2.67-31.67-2.67-33-4.67-40.33-4.67-40.33l-2.67-21.33-7-90.33s-4.67-42-4.67-43.33-5.33-30.67-6.33-33-12-34-12-34l-4-8.67V478.17L50.5,465.83l23-12,20-16.33,22-33.67,17.33-33.33,19.67-48,11.33-39s6-39,7.33-41,6.33-49.33,6.33-49.33v-18l-5.67-32.33s-4.67-42.33-4.67-43.33-2-18-2-20.33-.67-13.67-.67-13.67l5.67-6h16.67l20.67-3h26.33l9-5h13L272.5,80.17l7.67,19,10.33,19,18.67,24.67,14.33,14,21,14.33,20,5.67,43,9s21,1.67,22.33,1.67,30-3.67,30-3.67l31-11,10.67-8,12.67-12,19.67-19.33,9-18.67s17-28,17-29,3.67-11.67,3.67-11.67l4.67-13.67,13.67,5.33,14.67,5.33,17.67,3.67,23.67,4.67,7.33,2.67L635.5,146.5s2.33,13.67,1.67,16.67.67,19.67.67,23,1.67,30.67,1.67,30.67l5.67,56.33,2,25,5.67,44s10.67,46,10.67,47,8.67,23.33,8.67,24.33,17,34.67,17,34.67,10.67,18.33,11.33,19.33,11.33,13.33,12.33,14.67S730.5,495.5,730.5,495.5l13.67,8-2.33,10s-3.67,10-4.33,11-13,26-13,26l-14.67,58.33L695.5,700.17l-10.67,79s-4.67,43.33-4.67,44.33-2.67,31.67-2.67,31.67l-4.33,51.67s-.33,33-.33,34.67.33,40.33.33,40.33l-2,45.33s2.67,19,1.67,23-1.33,24.33-1.33,24.33l-3,18.67-5.67,8.33-45.33,7.33h-31l-39.33,3.33H520.83l-33-11-30.33-13.33-20.33-3-26-.67-51,18.33-55.33,9.67-37,2.67-32.33-5-38-5-27,.67-41.33-2-29.67-.67Z"/></svg>