<svg id="Layer_2" data-name="Layer 2" xmlns="http://www.w3.org/2000/svg" viewBox="0 0 479 640"><defs><style>.cls-1{fill:#e10013;}</style></defs><title>Artboard 1</title><path class="cls-1" d="M67.83,267.33l17-14.67L96.17,239l13.67-16,12.48-11.81,23-30.69,2.5-4,9.5-4.33,12.33-2,2.5-2.33-7.67-6.67-7.83-8.83-2.5-5.83V141l1.5-4.17,3-2.67,4.67-5,5.17-5s4.33-3,5-3.5,5.83-5,5.83-5l5-3.5,5.67-1.83,3.83-3.67,4.33-4.33,13.17-18.5,7.83-12.17L228.5,65l4.17-5L240,55.17l5.17-4.67,1.67-.67,9.33,6.67,3,2L263,61.33s6,4.67,6.33,5.5S276,72,276,72s5.5,6.67,5.5,7.17,6.33,7.67,6.33,7.67l4.83,7.67,4.5,6.83,6.17,9,5,6.33,3.83,7.17,3.17,5.17,3.17,1.67,3.17,6.17s3,5.5,3.5,6.83,1.83,6.17,2.67,7.67a35.45,35.45,0,0,1,2.5,6c.33,1.33,1.33,5,.83,7a49.81,49.81,0,0,1-2,5.5l-5,4.5-3.83,3.33,7.67,2.67,7,.33,3.17,7,6.17,9.33,19.83,23.67s7,7.83,7.5,8.17,6.67,9.33,6.67,9.33,6.17,9,6.33,9.5,5,8.33,5.17,8.83,3,6,3,6v4.83s6.5,3.67,7,4.17,8.33,9,8.33,9l8.17,4.67s3.83,5.5,4.33,5.67,8.67,4.67,8.67,4.67l6.67,5.33,5,10.67a43.24,43.24,0,0,1,0,6.67c-.33,1.5-1.17,3.17-1.17,4.67s2.33,5,2.33,5a7.2,7.2,0,0,1,0,3c-.33,1.83-.5-.5-.83,3.17s-1,2.33-.33,4.33a31.37,31.37,0,0,0,2.5,5.67c.67,1,0,3.63,0,3.63l.3,5,.7,5.13a14.83,14.83,0,0,0,.63,3.75c.5,1.13.75,5.75,1,7.25s2.25,7,2.75,8.38a40.1,40.1,0,0,1,1.38,7.38c0,1.25,1.25,6.88,1.25,7.25v4.5s1.63,19.25,1.63,20.25-2.12,9-1.62,10.38a103.91,103.91,0,0,1,1.88,11.75V452l-.62,8.63s.5,15.63.63,17.25-.87,7.38-.87,7.75-.12,7.75-.12,7.75l-1,7.63-.37,7.75s-.62,7.38-.62,7.75-1.25,8.25-1.25,8.25l-1,5.75-4.5,4.5-.62,3.63L440.38,542l-2.62,4.88-.5,2.75v5.25l1,8L440,568l-1.5,2.38H421.13l-12.87.63s-4.75,2.75-4.75,3.5-1.37,6.75-1.5,7.38-1,7.25-1.37,8.5a46.65,46.65,0,0,0-.75,5.25l-8.62,1.5-15.37-2-57.37-5.37-31.37-.5H255.88l-25.62,1.25s-69.5,4-70,4.25-42.87-.25-43.25-.25-30.37-1-30.37-1L72.5,597.13l-12.87,3.13-3.75,1.63-1.75-16.75-2.75-9.25L50.13,572l-19.5,1.38V543.75l-2.12-8.37s2-3.37,1.25-4S25.63,527,25.63,527l-2.25-4.25V486l2.13-21.75,3-35.12s.63-11.5.63-11.87,1.13-14,1.13-14l2.63-8s2.5-22.75,2.5-23.12.88-12.75.88-13.62S36,343.5,36,343s1.5-24,1.5-24l.63-11.87,3-15L45,285.88s2.13-5,2.38-5.37,5.5-3.25,5.5-3.25,3.75-1.37,4.38-1.75,5.88-1.75,5.88-1.75l3-.62Z"/></svg>